<svg width="47" height="47" viewBox="0 0 47 47" fill="none" xmlns="http://www.w3.org/2000/svg">
<path d="M34.1562 46.6562H30.25C30.0428 46.6562 29.8441 46.5739 29.6976 46.4274C29.5511 46.2809 29.4688 46.0822 29.4688 45.875C29.4688 45.6678 29.5511 45.4691 29.6976 45.3226C29.8441 45.1761 30.0428 45.0938 30.25 45.0938H34.1562C34.3635 45.0938 34.5622 45.1761 34.7087 45.3226C34.8552 45.4691 34.9375 45.6678 34.9375 45.875C34.9375 46.0822 34.8552 46.2809 34.7087 46.4274C34.5622 46.5739 34.3635 46.6562 34.1562 46.6562Z" fill="#EA9D2D"/>
<path d="M33.375 38.8438H31.0312C30.824 38.8438 30.6253 38.7614 30.4788 38.6149C30.3323 38.4684 30.25 38.2697 30.25 38.0625C30.25 37.8553 30.3323 37.6566 30.4788 37.5101C30.6253 37.3636 30.824 37.2812 31.0312 37.2812H33.375C33.5822 37.2812 33.7809 37.3636 33.9274 37.5101C34.0739 37.6566 34.1562 37.8553 34.1562 38.0625C34.1562 38.2697 34.0739 38.4684 33.9274 38.6149C33.7809 38.7614 33.5822 38.8438 33.375 38.8438Z" fill="#EA9D2D"/>
<path d="M26.3438 23.2188H35.9398C36.3059 23.2187 36.6646 23.3216 36.975 23.5156L42.75 27.125L41.9688 30.25L36.398 27.0908L34.5469 25.8802L26.3438 23.2188Z" fill="#55300B"/>
<path d="M33.0662 15.0883L34.9375 12.2812L37.2813 16.1875L33.0662 15.0883Z" fill="#027E2A"/>
<path d="M31.0312 13.8438L37.2812 16.1875L34.1562 23.2188L27.9062 20.875L31.0312 13.8438Z" fill="#02A437"/>
<path d="M19.3125 17.75L14.625 27.9062H17.75L20.0938 23.2188L19.3125 17.75Z" fill="#FDC9A6"/>
<path d="M17.8392 20.942L20.875 23.2188L22.4375 20.875L20.0937 16.9688L19.3125 17.75L17.8392 20.942Z" fill="#2CBFF4"/>
<path d="M9.9375 27.9062H30.25C31.4932 27.9063 32.6855 28.4001 33.5646 29.2792C34.4436 30.1583 34.9375 31.3505 34.9375 32.5938C34.9375 33.837 34.4436 35.0292 33.5646 35.9083C32.6855 36.7874 31.4932 37.2812 30.25 37.2812H9.9375V27.9062Z" fill="#D32B39"/>
<path d="M25.5625 10.7188C25.5625 8.99286 24.1634 7.59375 22.4375 7.59375C20.7116 7.59375 19.3125 8.99286 19.3125 10.7188V12.2812C19.3125 14.0071 20.7116 15.4062 22.4375 15.4062C24.1634 15.4062 25.5625 14.0071 25.5625 12.2812V10.7188Z" fill="#FDC9A6"/>
<path d="M25.5625 9.93749H20.875L19.3125 11.5L18.1767 8.66034C18.0451 8.33143 17.9955 7.97545 18.0322 7.62311C18.0689 7.27076 18.1907 6.93263 18.3872 6.63788C18.6529 6.23931 19.0423 5.93917 19.4954 5.78367C19.9484 5.62817 20.4401 5.62594 20.8945 5.77733L21.6563 6.03124L22.269 4.80575C22.5279 4.28792 22.9719 3.8863 23.5131 3.68056C24.0543 3.47482 24.653 3.47997 25.1905 3.69501C25.721 3.90721 26.154 4.30863 26.4056 4.82161C26.6572 5.3346 26.7096 5.92267 26.5526 6.47206L25.5625 9.93749Z" fill="#683B0D"/>
<path d="M20.875 15.4062L19.3125 17.75V21.0107C19.3125 21.4352 19.4113 21.8539 19.6012 22.2336L22.4375 27.9062L26.3438 23.2188L24.7812 20.875L24 15.4062H20.875Z" fill="#0296E5"/>
<path d="M21.6562 20.875L30.4771 22.9105C30.8577 22.9984 31.2569 22.9556 31.6103 22.7891C31.9637 22.6226 32.2508 22.3421 32.4254 21.9926C32.5406 21.7622 32.6032 21.5092 32.6087 21.2517C32.6143 20.9942 32.5627 20.7387 32.4575 20.5036C32.3524 20.2685 32.1964 20.0597 32.0008 19.8921C31.8053 19.7246 31.5749 19.6025 31.3265 19.5348L24.7812 17.75L21.6562 20.875Z" fill="#FDC9A6"/>
<path d="M24.7813 17.75L24.3588 16.0605C24.2564 15.6505 24.0199 15.2865 23.6868 15.0264C23.3537 14.7663 22.9432 14.625 22.5206 14.625C22.2326 14.6249 21.9484 14.6905 21.6896 14.8168C21.4308 14.943 21.2042 15.1266 21.0269 15.3536C20.8497 15.5806 20.7266 15.845 20.6668 16.1267C20.6071 16.4084 20.6124 16.7 20.6823 16.9794L21.6563 20.875L24.7813 17.75Z" fill="#2CBFF4"/>
<path d="M26.3438 23.2188L34.7945 25.3314C35.0824 25.4034 35.3501 25.54 35.5773 25.7309C35.8044 25.9217 35.9852 26.1619 36.1057 26.433L38.8438 32.5938L36.5 34.9375L33.375 27.9062H22.4375L26.3438 23.2188Z" fill="#683B0D"/>
<path d="M42.75 27.125L44.3125 26.3438L46.6562 27.125L45.0938 31.0312L41.9688 30.25L42.75 27.125Z" fill="#CBCBCB"/>
<path d="M38.8438 32.5938L41.9688 34.1562V36.5L37.2812 37.2812L36.5 34.9375L38.8438 32.5938Z" fill="#CBCBCB"/>
<path d="M9.83984 29.4688H7.49609C7.28889 29.4688 7.09018 29.3864 6.94367 29.2399C6.79715 29.0934 6.71484 28.8947 6.71484 28.6875C6.71484 28.4803 6.79715 28.2816 6.94367 28.1351C7.09018 27.9886 7.28889 27.9062 7.49609 27.9062H9.83984C10.047 27.9062 10.2458 27.9886 10.3923 28.1351C10.5388 28.2816 10.6211 28.4803 10.6211 28.6875C10.6211 28.8947 10.5388 29.0934 10.3923 29.2399C10.2458 29.3864 10.047 29.4688 9.83984 29.4688Z" fill="#D32B39"/>
<path d="M11.5 38.0625H7.59375C7.38655 38.0625 7.18784 37.9802 7.04132 37.8337C6.89481 37.6872 6.8125 37.4885 6.8125 37.2812C6.8125 37.074 6.89481 36.8753 7.04132 36.7288C7.18784 36.5823 7.38655 36.5 7.59375 36.5H11.5C11.7072 36.5 11.9059 36.5823 12.0524 36.7288C12.1989 36.8753 12.2812 37.074 12.2812 37.2812C12.2812 37.4885 12.1989 37.6872 12.0524 37.8337C11.9059 37.9802 11.7072 38.0625 11.5 38.0625Z" fill="#D32B39"/>
<path d="M9.9375 31.0312H30.25C30.6644 31.0312 31.0618 31.1959 31.3549 31.4889C31.6479 31.7819 31.8125 32.1793 31.8125 32.5938C31.8125 33.0082 31.6479 33.4056 31.3549 33.6986C31.0618 33.9916 30.6644 34.1562 30.25 34.1562H9.9375V31.0312Z" fill="#CBCBCB"/>
<path d="M31.8125 46.6562H11.5C10.2568 46.6562 9.06451 46.1624 8.18544 45.2833C7.30636 44.4042 6.8125 43.212 6.8125 41.9688C6.8125 40.7255 7.30636 39.5333 8.18544 38.6542C9.06451 37.7751 10.2568 37.2812 11.5 37.2812H31.8125V46.6562Z" fill="#EA9D2D"/>
<path d="M31.8125 40.4062H11.5C11.0856 40.4062 10.6882 40.5709 10.3951 40.8639C10.1021 41.1569 9.9375 41.5543 9.9375 41.9688C9.9375 42.3832 10.1021 42.7806 10.3951 43.0736C10.6882 43.3666 11.0856 43.5312 11.5 43.5312H31.8125V40.4062Z" fill="#CBCBCB"/>
<path d="M12.4153 16.0534L12.2812 16.1875H7.59375L7.45967 16.0534C6.75911 15.3529 6.2034 14.5212 5.82427 13.6059C5.44513 12.6905 5.25 11.7095 5.25 10.7188C5.25 9.47555 5.74386 8.28326 6.62294 7.40419C7.50201 6.52511 8.6943 6.03125 9.9375 6.03125C11.1807 6.03125 12.373 6.52511 13.2521 7.40419C14.1311 8.28326 14.625 9.47555 14.625 10.7188C14.625 11.7095 14.4299 12.6905 14.0507 13.6059C13.6716 14.5212 13.1159 15.3529 12.4153 16.0534Z" fill="#EA9D2D"/>
<path d="M12.0525 10.1663C11.9799 10.0938 11.8938 10.0362 11.799 9.99694C11.7042 9.95768 11.6026 9.93747 11.5 9.93747C11.3974 9.93747 11.2958 9.95768 11.201 9.99694C11.1063 10.0362 11.0201 10.0938 10.9476 10.1663L9.93752 11.1765L8.92746 10.1663C8.78095 10.0198 8.58223 9.93748 8.37502 9.93748C8.16781 9.93748 7.9691 10.0198 7.82258 10.1663C7.67606 10.3128 7.59375 10.5115 7.59375 10.7187C7.59375 10.926 7.67606 11.1247 7.82258 11.2712L9.15627 12.6049V16.1875C9.15627 16.3947 9.23858 16.5934 9.38509 16.7399C9.53161 16.8864 9.73032 16.9687 9.93752 16.9687C10.1447 16.9687 10.3434 16.8864 10.4899 16.7399C10.6365 16.5934 10.7188 16.3947 10.7188 16.1875V12.6049L12.0525 11.2712C12.125 11.1986 12.1826 11.1125 12.2218 11.0177C12.2611 10.9229 12.2813 10.8213 12.2813 10.7187C12.2813 10.6161 12.2611 10.5146 12.2218 10.4198C12.1826 10.325 12.125 10.2389 12.0525 10.1663Z" fill="#C38325"/>
<path d="M9.9375 3.6875C9.7303 3.6875 9.53159 3.60519 9.38507 3.45868C9.23856 3.31216 9.15625 3.11345 9.15625 2.90625V1.34375C9.15625 1.13655 9.23856 0.937836 9.38507 0.791323C9.53159 0.64481 9.7303 0.5625 9.9375 0.5625C10.1447 0.5625 10.3434 0.64481 10.4899 0.791323C10.6364 0.937836 10.7188 1.13655 10.7188 1.34375V2.90625C10.7188 3.11345 10.6364 3.31216 10.4899 3.45868C10.3434 3.60519 10.1447 3.6875 9.9375 3.6875Z" fill="#FBB540"/>
<path d="M6.42268 4.62958C6.28542 4.62972 6.15054 4.59368 6.03163 4.52511C5.91272 4.45653 5.81397 4.35784 5.74534 4.23896L4.96409 2.88583C4.91198 2.79695 4.87797 2.69864 4.86401 2.59656C4.85006 2.49448 4.85643 2.39064 4.88276 2.29103C4.9091 2.19142 4.95488 2.09801 5.01746 2.01616C5.08005 1.93432 5.1582 1.86566 5.24743 1.81415C5.33666 1.76263 5.43519 1.72927 5.53736 1.71599C5.63954 1.70271 5.74332 1.70977 5.84276 1.73677C5.94219 1.76376 6.0353 1.81016 6.11673 1.87328C6.19815 1.93641 6.26629 2.01502 6.31722 2.10459L7.09847 3.45771C7.167 3.57642 7.2031 3.71106 7.20313 3.84813C7.20317 3.9852 7.16714 4.11987 7.09867 4.23861C7.03019 4.35735 6.93168 4.45599 6.81303 4.52462C6.69438 4.59324 6.55975 4.62944 6.42268 4.62958Z" fill="#FBB540"/>
<path d="M3.84753 7.20314C3.71058 7.20318 3.57606 7.16703 3.45759 7.09835L2.10446 6.3171C1.92649 6.21276 1.79701 6.04227 1.74428 5.84282C1.69154 5.64337 1.71984 5.43116 1.823 5.2525C1.92615 5.07383 2.09578 4.94323 2.29488 4.88917C2.49398 4.83512 2.70637 4.86201 2.88571 4.96398L4.23884 5.74523C4.38786 5.83123 4.50433 5.96402 4.57016 6.123C4.63599 6.28197 4.64749 6.45823 4.60289 6.62441C4.55829 6.79059 4.46007 6.9374 4.32349 7.04204C4.1869 7.14669 4.01959 7.20332 3.84753 7.20314Z" fill="#FBB540"/>
<path d="M2.90625 10.7188H1.34375C1.13655 10.7188 0.937836 10.6364 0.791323 10.4899C0.64481 10.3434 0.5625 10.1447 0.5625 9.9375C0.5625 9.7303 0.64481 9.53159 0.791323 9.38507C0.937836 9.23856 1.13655 9.15625 1.34375 9.15625H2.90625C3.11345 9.15625 3.31216 9.23856 3.45868 9.38507C3.60519 9.53159 3.6875 9.7303 3.6875 9.9375C3.6875 10.1447 3.60519 10.3434 3.45868 10.4899C3.31216 10.6364 3.11345 10.7188 2.90625 10.7188Z" fill="#FBB540"/>
<path d="M2.4961 15.0156C2.32402 15.0158 2.1567 14.9592 2.0201 14.8546C1.8835 14.75 1.78526 14.6031 1.74065 14.437C1.69603 14.2708 1.70753 14.0945 1.77335 13.9355C1.83918 13.7765 1.95565 13.6437 2.10469 13.5577L3.45782 12.7765C3.63716 12.6745 3.84955 12.6476 4.04865 12.7017C4.24774 12.7557 4.41738 12.8863 4.52053 13.065C4.62368 13.2437 4.65198 13.4559 4.59925 13.6553C4.54652 13.8548 4.41704 14.0253 4.23907 14.1296L2.88594 14.9109C2.76747 14.9795 2.633 15.0156 2.4961 15.0156Z" fill="#FBB540"/>
<path d="M13.4523 4.62958C13.3153 4.62944 13.1806 4.59324 13.062 4.52462C12.9433 4.45599 12.8448 4.35735 12.7763 4.23861C12.7079 4.11987 12.6718 3.9852 12.6719 3.84813C12.6719 3.71106 12.708 3.57642 12.7765 3.45771L13.5578 2.10459C13.6087 2.01502 13.6769 1.93641 13.7583 1.87328C13.8397 1.81016 13.9328 1.76376 14.0323 1.73677C14.1317 1.70977 14.2355 1.70271 14.3376 1.71599C14.4398 1.72927 14.5384 1.76263 14.6276 1.81415C14.7168 1.86566 14.795 1.93432 14.8575 2.01616C14.9201 2.09801 14.9659 2.19142 14.9922 2.29103C15.0186 2.39064 15.025 2.49448 15.011 2.59656C14.997 2.69864 14.963 2.79695 14.9109 2.88583L14.1297 4.23896C14.061 4.35784 13.9623 4.45653 13.8434 4.52511C13.7245 4.59368 13.5896 4.62972 13.4523 4.62958Z" fill="#FBB540"/>
<path d="M12.2812 19.3125L10.7188 20.875H9.15625L7.59375 19.3125V16.1875H12.2812V19.3125Z" fill="#CBCBCB"/>
<path d="M7.59375 19.3125H12.2812L10.7188 20.875H9.15625L7.59375 19.3125Z" fill="#EAEAE8"/>
</svg>
